<?xml version="1.0" encoding="utf-8"?>
<!-- Generator: Adobe Illustrator 25.2.3, SVG Export Plug-In . SVG Version: 6.00 Build 0)  -->
<svg version="1.1" id="Layer_1" xmlns="http://www.w3.org/2000/svg" xmlns:xlink="http://www.w3.org/1999/xlink" x="0px" y="0px"
	 viewBox="0 0 72 72" style="enable-background:new 0 0 72 72;" xml:space="preserve">
<style type="text/css">
	.st0{fill:#EE384A;}
</style>
<path class="st0" d="M54.66,42.04l-8.48-4.9c-1.97,1.67-4.53,2.69-7.32,2.69c-6.24,0-11.3-5.05-11.3-11.3
	c0-6.24,5.06-11.29,11.3-11.29c2.9,0,5.55,1.09,7.54,2.88l7.68-4.43l4.08-2.36c-4.61-6-11.87-9.88-20.03-9.88
	c-0.46,0-0.94,0.02-1.43,0.04c-0.44,0.02-0.9,0.05-1.37,0.11c-0.02,0-0.02,0-0.05,0c-12.59,1.41-22.4,12.13-22.4,25.1
	c0,8.65,4.13,17.93,12.22,27.64c3.99,4.74,7.94,8.38,10.18,10.33c0.09,0.06,0.16,0.13,0.22,0.17c0.2,0.16,0.38,0.33,0.56,0.46
	c0.22,0.2,0.42,0.35,0.59,0.49c0.16,0.13,0.29,0.24,0.38,0.33c0.11,0.06,0.16,0.11,0.18,0.13c0.28,0.2,0.59,0.31,0.92,0.31
	c0.34,0,0.67-0.11,0.93-0.31c0.24-0.2,6.14-4.79,12.11-11.91c3.33-3.99,5.98-7.9,7.94-11.73L54.66,42.04z"/>
</svg>
